<?xml version="1.0" encoding="utf-8"?>
<!-- Generator: Adobe Illustrator 23.0.1, SVG Export Plug-In . SVG Version: 6.00 Build 0)  -->
<svg version="1.1" id="Layer_1" xmlns="http://www.w3.org/2000/svg" xmlns:xlink="http://www.w3.org/1999/xlink" x="0px" y="0px"
	 viewBox="0 0 700 369" style="enable-background:new 0 0 700 369;" xml:space="preserve">
<style type="text/css">
	.st0{fill:#425293;}
</style>
<path class="st0" d="M279,2.1c-12.8,1.5-25.8,2-26.5,0.9c-1.3-2-41.8-0.3-43.5,1.9c-0.3,0.3-2.6,0.6-5.1,0.6c-5.5,0-8.6,2-6.7,4.2
	c0.9,1.1,2.4,1.4,5.5,0.9c2.4-0.3,4.3-0.2,4.3,0.3c0,1.3-5.5,2.4-12.1,2.5c-3.2,0.1-6.3,0.7-7.3,1.5c-1.3,1.1-2,1.1-2.8,0.3
	c-1.4-1.4-10.8-1.6-10.8-0.3c0,1.6,1.8,2.2,7.7,2.6c3.9,0.2,6-0.1,7.1-1.1c1.2-1.3,1.6-1.3,2.6,0c1.1,1.4,6.8,2.1,15.4,1.8
	c5-0.2,5.7-2.2,0.7-2.2c-1.9,0-3.5-0.5-3.5-1c0-1.3,6.3-1.3,7.6-0.1c0.5,0.6,2.8,0.1,5.9-1.5c2.8-1.3,5.5-2.4,6.2-2.4
	c0.6,0,2.4-0.6,4-1.4c3.4-1.7,11.3-3.6,15-3.6c5.1,0,0.6,2.4-6.5,3.5c-5.7,0.9-6.7,1.3-6.7,3c0,1.8,0.8,2.1,7.5,2.5
	c9.8,0.7,10.4,1.1,9.5,6.9c-0.4,2.5-1.1,5.2-1.7,5.8c-0.7,0.9-0.6,1.5,0.5,1.9c2.3,0.8,3.6-0.3,3-2.6c-0.3-1.2,0-2,0.6-2
	c0.8,0,1.1,1.2,0.9,3.2c-0.2,2.5-0.8,3.4-2.5,3.6c-3,0.4-5.3,3.9-5.2,7.7c0.1,4.1,2.2,9.7,4,10.6c7.5,3.6,6.4,4,13.8-3.9
	c5-5.3,7.4-7.2,9.3-7.2c1.4,0,5.2-1.4,8.3-3c3.1-1.7,6.6-3,7.8-3c3.4,0,14.1-3.2,16-4.8c0.9-0.8,1.7-2.6,1.7-3.9
	c0-1.8,1.1-2.8,4.5-4.5c4.2-2.1,4.4-2.3,2.8-4c-1.5-1.7-1.5-1.8,0.7-1.8c2.2,0,2.2-0.1,0.6-1.9c-1.6-1.7-1.4-1.9,3.3-4
	c2.7-1.1,5.7-2.1,6.5-2.1c0.9,0,1.6-0.5,1.6-1c0-0.6-2.6-1-5.8-1c-3.2,0-6.3-0.5-7-1.2C308.7,1.3,289.3,0.8,279,2.1z M251,5
	c0,0.5-0.7,1-1.5,1S248,5.5,248,5c0-0.6,0.7-1,1.5-1S251,4.4,251,5z M212.5,6.9c0.3,0.5,0.1,1.2-0.5,1.6c-0.5,0.3-1-0.1-1-0.9
	C211,5.8,211.6,5.5,212.5,6.9z M299,27c0,0.5-0.4,1-0.9,1c-0.6,0-1.3-0.5-1.6-1c-0.3-0.6,0.1-1,0.9-1C298.3,26,299,26.4,299,27z"/>
<path class="st0" d="M425.3,4.7c-3.5,0.7-2.7,2.3,1.1,2.3c1.9,0,4,0.2,4.8,0.5c1.3,0.5,4.6-1.1,3.8-1.8
	C434.1,4.9,427.6,4.3,425.3,4.7z"/>
<path class="st0" d="M411,6c0,1.1,2.9,1.9,5.5,1.6c3.5-0.3,2.2-2-1.7-2.2C412.7,5.3,411,5.6,411,6z"/>
<path class="st0" d="M480.5,6.1c-0.9,1.4,0.2,2.4,2.8,2.5c1.2,0,4.4,0.4,7.1,0.9c3.9,0.6,4.8,0.5,4.4-0.6c-0.3-0.8-1.5-1.6-2.9-1.7
	c-1.3-0.2-2.8-0.8-3.3-1.3C487.2,4.7,481.3,4.8,480.5,6.1z"/>
<path class="st0" d="M372,7.1c-5.2,0.4-10.3,0.6-11.2,0.3c-3.8-1.1-1.6,2.5,2.7,4.7l4.5,2.3l2.5-2.4c2.3-2.2,2.6-2.2,4.3-0.7
	c2,1.9,5.2,2.3,5.2,0.7c0-0.6-0.7-1-1.5-1c-0.8,0-1.5-0.5-1.5-1c0-0.6,1.4-1,3-1c2,0,3-0.5,3-1.5c0-0.8-0.3-1.4-0.7-1.4
	C381.8,6.2,377.2,6.6,372,7.1z"/>
<path class="st0" d="M180.5,9.1c-0.9,1.3-0.7,1.5,3.2,2.2c3.7,0.7,5.3-0.7,2.4-2.2C183.6,7.7,181.3,7.7,180.5,9.1z"/>
<path class="st0" d="M167.8,10.2c-1.7,0.6-2.8,1.7-2.8,2.8c0,1-0.4,2.1-1,2.5c-1.5,0.9-6-0.6-6-2.1c0-1.7-0.8-1.7-8.2-0.2
	c-5.7,1.2-7.8,2.8-3.8,2.8c1.2,0,3.4,0.7,5.1,1.5c2.4,1.3,4.3,1.4,10.5,0.6c8.2-1,9.8-1.7,7.1-3.2c-2.4-1.4-2.1-2.6,0.8-3.3
	c1.4-0.4,2.5-1.1,2.5-1.6C172,8.8,171.4,8.8,167.8,10.2z"/>
<path class="st0" d="M502,13.5c-1.4,0.8-4.1,1.5-6,1.5c-5.2,0.1-12,1.8-13.7,3.5c-0.8,0.8-2.5,1.5-3.9,1.5c-2.9,0-3.2,2-0.4,2.7
	c1.1,0.3,2,1,2,1.5c0,0.6-0.7,0.7-1.6,0.4c-3.8-1.5-6.2-1.7-6.9-0.6c-0.5,0.8-1.3,0.6-2.6-0.6c-1.8-1.6-1.9-1.6-1.9,0.3
	c0,1.1,1.6,3.7,3.5,5.7c3.9,4.2,4.1,4.8,2,6.6c-1.7,1.4-3.6,0.5-2.9-1.4c0.3-0.8-0.8-3.3-2.5-5.7c-1.7-2.3-3.1-4.8-3.1-5.4
	c0-1.5-5-3-6.1-1.8c-0.4,0.4-1,1.9-1.4,3.3c-0.5,2.1-0.1,2.9,1.9,4c2.5,1.3,3.5,3,1.7,3c-0.5,0-2.8-0.7-5.1-1.5
	c-5.2-1.8-9-1.9-9-0.2c0,0.9-1.7,1.2-5.7,1.2c-6.7-0.1-12.8,1.2-14.4,3.2c-1.7,2-3.9,1.6-3.9-0.7c0-1.3-0.7-2-2-2
	c-1.7,0-1.9,0.5-1.4,2.5c0.5,2.1,0.3,2.5-1.5,2.5c-1.1,0-2.5,0.9-3.1,2c-0.6,1.1-2,2-3,2c-1.1,0-2,0.4-2,1c0,1.7-2.9,1.1-5-1
	c-3.5-3.5-2.6-4.9,2.5-3.7c3.9,0.9,4.8,0.8,6.2-0.6c2.2-2.1,1.3-2.9-5.7-5c-3-0.9-8-2.4-11-3.3s-6.8-1.8-8.5-1.9
	c-3.9-0.4-12.3,1.3-15.7,3.1c-1.4,0.8-3.3,1.4-4.2,1.4s-1.6,0.7-1.6,1.6c0,2-8.1,11.4-9.9,11.4c-0.7,0-2.9,0.9-4.7,2.1
	c-2.7,1.7-3.4,2.7-3.4,5.3c0,2,0.8,4,2,5.1c2.1,1.9,2,1.9,8.1-1.3c1.2-0.6,4.9,5.6,4.3,7.2c-0.8,2.2-3.4,2-3.4-0.2
	c0-2.7-1-3.3-3.2-2.1c-1.5,0.8-1.9,1.9-1.6,4.7c0.3,3.4,0.1,3.7-2.5,4c-1.9,0.2-4.9,2.3-8.4,5.8c-3,3-6.3,5.4-7.4,5.4
	c-1,0-2.1,0.4-2.4,1c-0.3,0.5-1.9,1-3.5,1c-4.3,0-4.5,1.5-0.4,3.9c3.3,1.9,3.5,2.4,3.2,6.4l-0.3,4.2l-7.3-0.4
	c-8.1-0.4-10.2,0.6-9.4,4.4c0.2,1.4-0.1,3.8-0.7,5.3c-1.6,3.8,0,7.9,3.1,8.4c4.1,0.6,3.5,4.3-1.6,9.3c-3,2.9-4.6,5.3-4.6,6.9
	c0,2.8-2.2,5.7-6.9,8.8c-3.2,2.2-5.1,4.9-10.2,14.2c-1.8,3.3-1.9,4.2-0.8,6.2c1.3,2.6,0.7,11.8-1.1,13.9c-1.7,2,0.4,9.5,3.4,11.9
	c1.4,1.2,3.4,3.7,4.3,5.7c1,2,4.3,5.8,7.3,8.3c4.5,3.9,6,4.6,8,4c1.4-0.4,5.2-0.8,8.5-0.9c3.3-0.1,7.4-0.8,9-1.7
	c1.7-0.8,4.7-1.8,6.7-2.1c3.3-0.5,4-0.2,5.8,2.4c1.6,2.2,2.9,2.9,5.4,2.9c5.7,0,6.6,3.2,4,13.6c-0.4,1.4,0.6,3.6,3,6.8
	c3.7,4.8,6.8,11.6,6.8,15.1c0,1.1,0.5,3.5,1,5.3c0.8,2.6,0.6,3.8-1.2,6.7c-1.2,1.9-2.4,5.9-2.7,8.8c-0.5,4.5-0.1,6.1,2.2,10.7
	c1.6,3,3.4,8.8,4.1,12.8s2.1,8.5,3.1,10c3.1,4.6,5.4,10.4,4.8,12.2c-0.3,1,0.3,2.7,1.2,3.8c1.6,1.8,2.3,2,6.8,1.1
	c2.8-0.5,6.8-1.2,9-1.5c3-0.4,5-1.7,8.5-5.3c6.6-6.9,10-12.1,10-15c0-1.9,0.9-3.1,3.1-4.4c3.1-1.7,3.2-1.9,2.6-7.7l-0.5-5.9l4.6-4
	c10.8-9.3,10.2-8.4,10.2-15.3c0-3.5-0.5-6.9-1-7.4c-0.6-0.6-1.5-3.8-2.1-7.2c-0.8-5.1-0.7-6.8,0.6-9.3c2.8-5.2,10.1-14.2,15-18.3
	c3.7-3,5.6-5.9,9.1-13.3c3.5-7.5,4.2-9.9,3.3-11.4c-0.7-1.4-1.5-1.7-2.7-1.1c-0.9,0.5-4.3,1.4-7.5,2.1c-6.3,1.4-8.7,0.6-8.7-3
	c0-1.3,0.7-1.9,2.4-1.9c1.4,0,2.8-0.5,3.1-1c0.3-0.6,1.4-1,2.3-1c2.1,0,11-4.6,13.8-7.1c1.1-1.1,2.5-1.9,3.2-1.9
	c2,0,8-5.9,10.7-10.6c2.9-5,2.6-6.3-2.7-9c-1.5-0.8-2.8-2.1-2.8-2.9c0-2.4-2-2.7-3.8-0.6c-2.2,2.6-7.5,3.2-8,0.9
	c-0.2-0.9-2.3-3.7-4.8-6.1c-4.6-4.6-5.5-7.3-2.8-8.4c1.1-0.4,2.7,0.6,4.8,3c4.6,5.2,7.9,7,11.6,6.2c2.4-0.5,3.4-0.2,4.9,1.6
	c1.7,2.1,2.7,2.3,11.3,2.4c9.3,0,9.5,0.1,12.7,3.2c1.8,1.8,3.6,3.3,4.1,3.3s1,1,1.2,2.1c0.2,1.2,1.1,2.7,2.1,3.3
	c1.5,0.9,2.1,0.7,3.3-0.9c1.3-1.7,1.6-1.8,2.5-0.5c0.5,0.8,0.7,2.3,0.5,3.2c-0.4,1.6,1.1,6.2,5.6,18.3c0.6,1.6,2,4.3,3,6
	c1,1.6,1.8,3.7,1.8,4.6c0,0.9,0.9,2.4,1.9,3.3c1.9,1.7,2,1.6,4.6-2.2c2.2-3.4,2.6-5,2.4-10.2l-0.3-6.1l7.1-7.2c3.9-4,7.3-8,7.7-9.1
	c0.4-1.1,1.2-1.6,2.2-1.2c0.8,0.3,3.1-0.1,5-0.9c3.2-1.3,3.5-1.3,4.1,0.3c0.4,0.9,2.1,3.5,4,5.6c2.3,2.7,3.3,5,3.3,7.2
	c0,4,1.5,5.1,3.9,3c1-0.9,2.2-1.6,2.7-1.6c1.6,0,4.5,10.4,4.8,17.1c0.2,4.5,0.8,6.5,2.5,8.3c1.2,1.3,2.7,4.1,3.2,6.2
	c0.6,2.2,2.9,5.7,5.2,8.1c4.1,4.3,7,5,4.2,1c-0.8-1.2-1.5-3.4-1.5-5c0-2-1.1-4-3.7-6.6c-5.1-5-7.5-10.3-6.7-15.2
	c0.4-2.1,1.2-3.9,1.9-3.9c1.8,0,10.5,8.8,10.5,10.5c0,2.2,0.7,1.9,6.1-2.7c2.7-2.2,4.9-5,4.9-6c0-3.5-2.8-8.6-6.9-12.7
	c-4.7-4.7-5.1-6.8-1.8-9.9c2.8-2.6,4-2.7,5.7-0.7c1.2,1.4,1.5,1.4,3-0.3c1-1,4.3-2.6,7.4-3.6c7-2.2,10.3-6.1,12.8-14.6
	c1.4-5.2,1.5-6.2,0.2-6.7c-0.8-0.3-1.4-1.5-1.4-2.7c0-1.3-2-4.3-4.6-7.1l-4.7-4.8l2.7-2.4c3.2-2.7,2.5-4.7-1.4-3.9
	c-1.7,0.3-4.2-0.1-5.9-1l-3-1.5l3.4-3.5c1.9-1.9,3.7-3.4,4-3.4s0.5,1.3,0.5,3c0,2.9,1.3,4,2.5,2c1.3-2.1,5.5-1.1,6.5,1.5
	c0.5,1.4,1.6,2.5,2.4,2.5c1.7,0,4.6,4.3,4.6,7c0,2.3,3.8,2.8,5.8,0.8s1.4-3.7-3.4-8.4c-4.2-4.3-4.4-4.7-2.9-6.4
	c0.8-0.9,1.3-2.4,1-3.1c-0.3-0.8,0.1-2.3,0.9-3.4c1.2-1.7,1.6-1.7,3-0.5c1.5,1.1,1.9,1.1,3-0.1c3.9-4.2,4.8-15.1,1.5-19.3
	c-1.5-2-1.8-3.1-1.1-3.8c0.8-0.8,2.5,1.1,5.9,6.5c2.6,4.2,5.4,7.6,6.1,7.6c1.8,0.1,1.5-1-1-3.6c-1.5-1.6-1.8-2.7-1.2-3.3
	c0.7-0.7-0.9-3.1-5.2-7.5c-6.6-6.9-7.9-7.7-6.9-4.5c0.6,1.9,0.4,1.9-3-0.5c-2.4-1.6-4.2-2.2-5.2-1.7c-0.8,0.5-3,0.4-4.9-0.2
	c-3.3-1.1-4.4-2.9-2.4-4.1c0.6-0.3,1-1.4,1-2.3c0-0.9,0.6-2.8,1.3-4.2c1.2-2.3,1.8-2.5,9.2-2.6c4.4,0,8.5,0.3,9.2,0.8
	c2.3,1.8,4.8,0,4.8-3.4c0-3.8,2.6-4.9,5.5-2.3c2,1.8,4,1.3,4-1.1c0-1.8,1.4-1.8,2.9-0.1c0.8,1,0.7,2.6-0.5,6.1c-0.9,2.5-1.3,5.7-1,7
	c0.3,1.2,3.7,5.1,7.6,8.5c7.9,7,8.5,6.8,7.6-2.4c-0.5-5.9-1.7-7.6-6.3-9.5c-3.1-1.3-3.1-5,0-5c1.3,0,2.8-0.5,3.4-1.1
	c0.8-0.8,1.7-0.8,3,0c1.6,0.8,2.4,0.5,4.5-2c1.6-1.8,3.6-2.9,5.2-2.9c3.6,0,3.2-1.1-1.1-3.5c-7.8-4.2-3.8-6,6.3-2.8
	c3,0.9,5.6,1.4,5.8,1.2c0.3-0.3,0.3-1.5,0-2.6c-0.5-1.7-1.8-2.4-6.3-3.3c-3.1-0.5-7.8-1.7-10.6-2.4c-7.1-2-19.1-4.4-25.3-5
	c-4.6-0.5-5.3-0.3-4.8,1c0.5,1.3,0.2,1.4-1.1,0.8c-1-0.4-5.4-1-9.8-1.2c-4.4-0.2-8.6-0.8-9.2-1.4c-0.7-0.6-5.7-1.4-11.2-1.8
	c-5.5-0.4-10.5-1.1-11.1-1.5c-0.7-0.4-4.5-1-8.4-1.2c-3.9-0.2-7.5-0.9-8-1.4c-1.6-1.5-2.6-1-2.6,1.1c0,1.7-0.7,2-5.3,2
	c-2.9,0-5.7,0.4-6.3,1c-0.6,0.6-2.3,0.1-4.9-1.7c-4.4-3-12.3-4.9-13.9-3.3c-1.4,1.4-7.3,1.3-8.2-0.1c-0.4-0.7-2.4-0.9-4.9-0.7
	c-2.6,0.3-4.9,0-6-0.8c-1.6-1.2-2.1-1.2-3.4,0c-2.6,2.2-4.1,2.8-4.1,1.6c0-0.6,1.1-1.5,2.5-2c2.7-1,3.2-2.4,1.4-3.6
	c-0.6-0.3-4.1-1-7.8-1.5c-3.6-0.5-7.9-1.1-9.6-1.4C505.8,12.2,503.4,12.6,502,13.5z M478.7,33.2c-0.3,0.7-0.5,0.2-0.5-1.2
	c0-1.4,0.2-1.9,0.5-1.3C478.9,31.4,478.9,32.6,478.7,33.2z M385,39.9c0,0.5-1.4,2-3.1,3.4c-2.8,2.2-3,2.7-2.1,5.8
	c0.9,3.6,1.5,3.8,10.1,2.8c2.1-0.3,3.5,0.1,3.8,0.8c0.3,0.9-0.8,1.3-3.6,1.3c-4.8,0-9.1,1.8-8.5,3.5c0.3,0.7,0.1,1.6-0.5,2
	c-0.6,0.3-1.1,1.7-1.1,3c0,2.8-1.4,3.9-5.5,4.2c-12.6,1-15.5,1.1-15.5,0.3c0-0.8,3.1-2.2,5.5-2.5c3.6-0.4,6.5-2.6,6.5-4.9
	c0-1.5,0.8-3,2-3.6c2.4-1.3,2.6-3.5,0.5-4.4c-2.6-1-1.6-3.8,2.8-8.2C380.1,39.6,385,37.6,385,39.9z M385.8,58.8
	c0.2,0.7-0.3,1.2-1.2,1.2s-1.6-0.7-1.6-1.6C383,56.7,385.2,57,385.8,58.8z M560.8,68.1c0.2,1.6-0.6,3.3-2.3,4.9
	c-3.3,3.1-4.3,2-1.5-1.8c1.4-1.8,2-3.7,1.6-4.7c-0.4-1.1-0.2-1.5,0.6-1.3C559.9,65.5,560.6,66.8,560.8,68.1z M507.9,87.4
	c1.7,2-1.3,4.3-3.4,2.6c-1.2-1-1.3-1.6-0.4-2.6c0.6-0.8,1.5-1.4,1.9-1.4S507.3,86.6,507.9,87.4z M419,87.9c0,0.6-0.4,1.3-1,1.6
	c-1.6,1-1.2,3.5,0.8,4.3c4.7,2,9.3,5.6,9,7.1c-0.4,2.3-5.9,2.6-11.6,0.7c-4.3-1.5-5.1-1.5-9.7,0c-2.7,0.9-5.8,2-6.7,2.5
	c-2.5,1.2-2.4,1.3-2.5-2.7c-0.1-3.2,2.1-8.6,4.8-12c1-1.3,4.9-0.7,4.9,0.6c0,1.8,3.1,3.8,5,3.3c2.2-0.6,2.6-1.8,0.8-2.9
	c-0.7-0.5-0.5-1.1,0.7-2.1C415.7,86.8,419,86.6,419,87.9z M450.8,89.2c0.2,1.1-0.3,1.8-1.1,1.8c-0.8,0-2,0.7-2.8,1.6
	c-1.1,1.3-0.7,2,2.5,5c2,1.9,4.3,3.4,5.1,3.4c2.4,0,2.8,2.1,0.6,2.7c-2.6,0.7-2.6,0.7,0,4.2c4.1,5.5,0.3,8.9-6.1,5.6
	c-3-1.5-3.2-2-2.6-5.4c0.5-3.2,0.2-4.1-2.3-6.5c-1.6-1.6-3.5-4.2-4.2-5.9c-1.2-2.8-1.1-3.2,2-5.9C445.6,86.5,450.2,86.2,450.8,89.2z
	 M498,89c0,0.5-0.4,1-1,1c-0.5,0-1-0.5-1-1c0-0.6,0.5-1,1-1C497.6,88,498,88.4,498,89z M375.8,99.2c2,1.1,3.2,2.5,3.2,3.7
	c0,2.4,3.5,9.5,5.5,11.1c1.1,0.9,2,0.7,3.9-0.7l2.4-1.8l-2.5-2.6l-2.5-2.7l3.2-1.6c3.8-1.8,4.6-1.6,5.4,2.1c1.3,5.6,2.9,8.3,4.7,8.3
	c1,0,2,0.4,2.4,1c0.4,0.6,1.5,0.5,3-0.2c1.8-0.8,2.8-0.8,3.9,0.1c1.1,0.9,2,1,3.6,0.1c4.8-2.6,6.1,0.7,3.6,9l-1.3,4.5h-4.9
	c-2.7,0-5.4,0.3-6,0.7c-1.3,0.9-12.1-1.9-15.3-3.9c-3.2-2.1-7.1-0.4-7.1,3.1c0,3.3-1.5,4.1-4.2,2.2c-1.2-0.9-2.9-1.6-3.7-1.6
	c-0.7,0-2.4-1.1-3.7-2.5c-1.4-1.6-3.4-2.5-5.2-2.5c-3.9,0-5.4-1.9-4.6-5.9c0.7-3.5-1-6.4-3.5-5.7c-0.9,0.3-4.7,0.7-8.6,1
	c-7.6,0.6-12.9,1.9-15,3.6c-2,1.7-9,0.9-9-1c0-0.9,1.1-1.6,3-1.8c4.1-0.5,8.5-3.9,8.5-6.6c0-2.3,3.2-5.8,6.3-6.9
	c1-0.4,1.7-1.5,1.5-2.4c-0.2-1.4,0.4-1.8,3.2-1.8c2,0,4.8-0.8,6.3-1.8c1.4-0.9,2.9-1.7,3.3-1.7s2.6,1.9,4.9,4.2
	c2.4,2.4,5.8,5.5,7.6,6.9c4,3.2,3.5,5.9-1.1,5.9c-3.5,0-3.9,1.4-0.8,3.1c1.9,1,2.5,0.8,5.1-2.1c1.5-1.7,2.6-3.8,2.3-4.6
	c-0.3-0.8,0.2-1.8,1-2.1c1.4-0.5,1.3-0.9-0.7-2.4c-1.3-1-2.8-1.9-3.4-1.9c-1.6,0-7.5-6.3-7.5-8c0-3.1,1.3-3,5.5,0.8
	C370.8,95.8,374.1,98.3,375.8,99.2z M467.5,92c0.3,0.5,0.4,1.4,0,2c-0.8,1.3-3.5,0.1-3.5-1.6C464,90.8,466.6,90.5,467.5,92z
	 M412.8,137c0.7,1.1,1.9,2,2.6,2c1.8,0,10.6,13.1,10.6,15.8c0,1.1,2.1,4.5,4.6,7.6c2.5,3,4.4,6.1,4.1,6.8c-0.2,0.7,0.4,2.9,1.5,4.8
	c1.9,3.6,2.3,6,1.1,6c-1.4,0-9.3-8.1-9.3-9.5c0-0.7-1.1-2.6-2.3-4.2c-1.3-1.5-2.7-4.5-3-6.7c-0.3-2.1-1.3-4.6-2.2-5.6s-3.1-5-5-8.9
	c-1.9-3.9-4.1-7.4-5-7.7c-1.8-0.7-2-2.4-0.2-2.4C411,135,412.1,135.9,412.8,137z M416.3,216.6c1.2,1.2-2.4,6.5-4.1,6.2
	c-1.6-0.4-1.8-2.2-0.7-5.6C412,216,415.2,215.5,416.3,216.6z M406,230.9c0,1.7,0.4,3.2,0.9,3.5c1.1,0.7,2.2,4.6,1.3,4.6
	c-0.4,0-1.5-1.4-2.4-3.1c-2-3.3-2.4-7.9-0.8-7.9C405.6,228,406,229.3,406,230.9z M418,249c0,2.7-0.4,5-1,5c-0.5,0-1-2.3-1-5
	c0-2.8,0.5-5,1-5C417.6,244,418,246.2,418,249z"/>
<path class="st0" d="M354.8,98.7c-0.9,1.6-0.3,9.3,0.7,9.5c1.3,0.4,1.9-8.2,0.7-9.4C355.7,98.3,355,98.2,354.8,98.7z"/>
<path class="st0" d="M389,119c0,0.5,1.1,1,2.5,1s2.5-0.5,2.5-1c0-0.6-1.1-1-2.5-1S389,118.4,389,119z"/>
<path class="st0" d="M410.5,119.1c-0.4,0.6-0.5,1.3-0.2,1.6c0.7,0.7,2.7-0.6,2.7-1.8C413,117.7,411.3,117.7,410.5,119.1z"/>
<path class="st0" d="M441.7,14.4c-4.8,0.9-6.5,1.8-9.3,4.9c-2,2.1-3.4,4.3-3.1,5c0.4,1.2,8.7,4,9.5,3.2c0.3-0.2-0.6-1.3-1.9-2.4
	l-2.4-1.9l2.4-2.6c2.3-2.4,5-3.6,11.4-5c3-0.7,3.8-2.7,1-2.5C448.3,13.2,444.9,13.8,441.7,14.4z"/>
<path class="st0" d="M131.5,21.3c-6.1,3.3-3.7,5.3,3.9,3.2c2.6-0.7,2.7-0.6,1.7,1.3c-0.6,1.1-1.1,2.5-1.1,3c0,1.6,5.6,3.4,8.5,2.6
	c2.1-0.5,2.7-0.4,2.3,0.7c-0.6,1.9-9.9,2.5-11.3,0.7c-1.3-1.8-8.2-3.8-12.8-3.8c-2,0-3.8-0.4-4.2-1c-0.3-0.5-1.1-0.7-1.8-0.5
	c-0.7,0.3-5.1,1.1-9.8,1.9c-7.4,1.3-9.1,1.3-12.5,0.1c-2.1-0.8-6.1-1.4-8.9-1.5c-2.7,0-7-0.5-9.4-1.1c-4.6-1-17.8,0.3-21.4,2.3
	c-1,0.5-3.7,1.3-6,1.7c-3.4,0.6-4.2,1.1-4,2.7c0.4,3.3-0.5,4.6-2.4,3.6c-2.5-1.2-10.8,1-10.8,2.8c0,1,1.1,1.5,3.2,1.6
	c5.1,0.1,4,1.8-1.9,3C25.1,46.3,21.1,48,20,50c-1.4,2.5-1.3,3,0.6,3c1,0,1.3,0.6,0.9,1.9c-0.5,1.5-0.1,1.8,2.1,1.3
	c2-0.4,2.5-0.1,2.2,0.9c-0.5,1.6-7.3,4.3-16.7,6.8c-3.6,0.9-6.6,2.2-6.9,2.9c-0.3,0.9,0.3,1,2.3,0.2c1.4-0.5,3.6-1,4.8-1
	s5.8-1.4,10.1-3.1c5.1-2,8.7-2.8,10.3-2.4c2.8,0.7,7.3-1.7,7.3-4c0-2,1.1-2.5,7.8-2.9c3.3-0.3,7-1.1,8.1-1.8c1.6-1,2.3-1,3.3,0
	c0.6,0.6,2.6,1.2,4.3,1.2c5,0,6.9,2.1,7,7.6c0,4.1,0.3,4.9,1.8,4.6c1.7-0.3,2.4,2.2,0.9,3.2c-0.5,0.3-0.7,1.9-0.4,3.6
	c0.3,2-0.1,3.7-1.2,4.9c-1.5,1.6-1.5,1.9,0.3,3.6c2,1.7,2,1.8-0.4,6.5c-1.3,2.6-3.5,6-4.8,7.6c-5.5,6.7-7,10.7-6.5,17.9
	c0.4,6.1,0.7,7,3.6,9.4c2.9,2.3,3.2,3.2,3.2,7.6c0,2.8,0.6,5.7,1.2,6.3c1,1,1,1.7,0.1,3.1c-1,1.6-0.8,2.2,1.3,3.6
	c1.7,1.1,2.4,2.3,2.1,3.5c-0.5,1.8,3.7,6.9,4.8,5.9c0.5-0.5-2-8.5-3.5-11.1c-0.6-1-1-2.5-1-3.3s-0.5-2.4-1.2-3.4
	c-1.3-2.2-0.4-5.5,1.5-4.9c0.6,0.3,1.3,2,1.5,3.8c0.2,1.8,1.4,4.8,2.8,6.5c1.3,1.8,2.4,3.7,2.4,4.3c0,0.7,1.6,3.3,3.6,5.9
	c3.1,4,3.5,5.2,3,8.3c-0.7,4.6,1.1,6.4,10.9,11.4c5.5,2.9,7.6,3.5,10.3,3c2.8-0.5,3.9-0.2,6.5,2.3c1.8,1.6,5.2,3.6,7.6,4.3
	c2.4,0.8,4.8,2.2,5.5,3.2c0.6,1,1.9,1.8,3,1.8c1.5,0,1.6,0.3,0.6,1.5s-0.7,2,1.8,4.3c3.6,3.4,7.7,6.2,9,6.2c0.6,0,1.2-0.9,1.5-2
	c0.3-1.1,1.2-2,1.9-2c2.2,0,3.8,4.4,3.8,10.4c0,4.1-0.5,5.7-2.1,7.2c-3.6,3.3-6.1,9.3-5.5,13c0.4,1.8,0.2,3.5-0.4,3.9
	c-1.8,1.1-1.1,4,1.9,8.1c1.5,2.1,5,8.1,7.7,13.3c4.2,8.1,5.6,9.9,9.9,12.6c9.7,6.3,9.7,6.3,10.2,23.7c0.2,8.4,0.9,16.8,1.4,18.5
	c0.6,1.8,1,6.8,0.9,11c-0.1,6.9,1.5,19,2.7,20.3c0.2,0.2,0.8-0.2,1.3-1c1.1-1.8,1.6-1.3,2.3,2.7c0.5,2.5,0.3,3.1-0.7,2.7
	c-1.8-0.7-1.6,4.7,0.2,6.8c0.7,0.9,1,2.2,0.7,3c-0.8,2,4.2,9,9.8,13.6c5.5,4.5,11,6.5,15.6,5.6c3.2-0.7,4.3-2.4,1.6-2.4
	c-0.9,0-3.6-1.9-6.1-4.2c-4-3.7-4.4-4.5-3.8-7.2c0.3-1.7,1-3.5,1.5-4.1c1.6-1.7,0.9-3.5-1.6-4.5c-2.8-1.1-3.2-3.1-1-5
	c0.8-0.7,1.5-2,1.5-2.9c0-0.9,0.5-2.2,1.2-2.9c0.8-0.8,0.5-1.4-1.6-2.2c-3.2-1.2-2.6-3,1-3c2,0,2.4-0.5,2.4-3c0-2.7,0.3-3,3.3-3
	c3.3,0,6.7-2.4,6.7-4.8c0-0.6-1.2-2.4-2.6-4.1l-2.6-3.1l4.5,0.6c4,0.6,4.7,0.4,6.1-1.8c0.9-1.3,1.9-3.8,2.2-5.5
	c0.3-1.8,1.2-3.4,1.9-3.7c2-0.7,4.5-6.6,4.5-10.6c0-2.6,0.7-4.2,2.3-5.6c3.2-2.7,6.4-4.4,8.5-4.4c4.4,0,8.1-8.2,8.9-19.5
	c0.5-7.3,0.9-8.5,4.9-14.6c4.4-6.6,5.3-10.3,3.4-14c-0.6-1-1.8-1.9-2.7-1.9c-0.8,0-3-1.3-4.8-2.9c-2.3-2-4.8-3-8.5-3.5
	c-3.3-0.4-6.5-1.7-8.6-3.2c-1.8-1.4-4.2-2.4-5.2-2.2c-2.4,0.4-6.2-2.9-6.2-5.3c0-1-0.4-2.1-1-2.4c-0.5-0.3-1-1.5-1-2.6
	c0-3.4-5.9-7.9-10.4-7.9c-3.1,0-4.5-0.7-7.2-3.5c-1.8-1.9-3.6-3.5-4-3.5c-0.3,0-2.2-1.7-4.1-3.7c-3-3.1-3.8-3.5-5.4-2.5
	c-2.6,1.6-9.3,0.5-11.5-1.9c-1.6-1.7-2-1.8-3.9-0.5c-2.5,1.6-3.7,1.2-2.8-1c0.7-1.8,0.5-1.8-4.2,0.6c-2.2,1.1-5.2,3.5-6.7,5.3
	c-2.4,2.8-2.9,3.1-4.7,1.9c-2.5-1.5-5.3-1.6-6.7-0.2c-1.5,1.5-4,0.3-5.9-2.6c-1.4-2.1-1.5-3.3-0.5-8c1.5-7.3,0.4-8.8-6.2-8.2
	c-2.7,0.3-4.8,0.1-4.8-0.4c0-1.1,2.5-6.9,4.6-11.1c2-3.6,1.3-4.4-3.1-3.9c-2.9,0.4-3.8,1-5,3.8c-0.9,2.3-2.2,3.5-4.2,4
	c-1.5,0.3-3.5,0.8-4.4,1c-2.2,0.6-5.9-3.8-6.9-8.1c-0.6-2.8-0.3-5.1,1.4-10c2.6-7.5,3.8-9,8.6-11.5c3.1-1.6,4.3-1.7,8-0.8
	c3.7,1,4.5,0.9,5.6-0.6c1-1.4,2.3-1.7,6.6-1.3c7,0.5,7.8,1,7.8,5.6c0,2.3,0.8,4.8,1.9,6.2l1.9,2.4l1-2.5c0.5-1.4,0.7-5.3,0.4-8.6
	l-0.4-6.2l5-3.8c2.8-2.2,6.6-4.8,8.4-5.9c2.5-1.5,3.4-2.8,3.6-5.3c0.2-1.7,0.9-3.2,1.5-3.2c0.7,0,2.4-1.6,4-3.5
	c2.4-3,6.3-5.5,10.7-6.7c0.8-0.3,1.5-1.3,1.5-2.4c0-1.4,1.9-2.8,6.9-5.2c6.7-3.2,9.9-3.6,6-0.8c-2.9,2.2-0.9,3.1,2.8,1.3
	c1.8-0.8,5-2.2,7.1-3.1c5-2,4.7-3.5-0.7-2.9c-5.4,0.6-6.7-0.9-3.6-4.2c2.1-2.2,2.1-2.5,0.6-3.1c-0.9-0.3-3-0.1-4.6,0.6
	c-4.8,2-5.8,0.5-1.3-1.8c3.2-1.7,6-2.2,11.3-2.2c4.9,0,7.8-0.5,9.6-1.6c4.3-2.9,4-0.5-0.6,4.1c-4.4,4.5-4.4,4.9-0.4,4.6
	c1.2-0.1,3.8,0.4,5.7,1.3c4.1,1.7,4.7,1.3,4.7-2.6c0-2.1-0.6-3.1-2.5-3.8c-2.3-0.9-2.4-1.2-1.4-3.2c2.8-5.3,2.9-5.9,1.9-7.8
	c-0.6-1.1-2.1-2.7-3.4-3.5c-1.9-1.2-2.5-2.8-3-7.5c-0.4-3.3-1-6-1.3-6c-0.4,0-1.6,0.9-2.8,2c-1.1,1.1-3.2,2.1-4.5,2.2
	c-2.1,0.3-2.5-0.1-2.5-2.5c-0.1-3.9-3.2-6.5-8.4-6.9c-4.1-0.3-4.5-0.1-6.2,3.2c-1.1,1.9-2.6,4-3.4,4.6c-1.1,0.8-1.4,2-1,3.6
	c0.7,2.6-1,4.6-5.9,6.9c-1.9,0.9-3.4,2.7-4.1,4.8c-2.3,6.9-7.1,6.8-5.6-0.1c0.9-4,0.6-4.8-1.8-4.8c-0.9,0-3.2-1.1-5.1-2.4
	c-2-1.3-4.4-2.5-5.5-2.7c-1-0.2-1.7-0.6-1.5-0.9s-0.2-1.5-0.8-2.7c-1-1.9-0.8-2.5,2.1-4.9c3-2.6,14.8-8.4,16.9-8.4
	c0.5,0,2.1-0.9,3.5-2c3.6-2.8,5.1-2.5,2.4,0.4c-2.5,2.7-1.4,4.3,1.9,2.6c1.1-0.6,3.1-0.8,4.5-0.4c3.3,0.8,3.2-0.9-0.2-3.7
	c-1.6-1.2-2.1-1.9-1.3-1.7c2.3,0.8,8.3-2.7,10.5-6.1c2.1-3.3,5.5-4.2,5.5-1.5c0,1.2,0.5,1.1,2-0.7c1.6-2,2.1-2.1,2.9-1
	c1.2,1.8,0.3,4.1-1.5,4.1c-0.8,0-1.4,0.4-1.4,1c0,1.5,2.1,1.2,4.1-0.6c1.7-1.6,3.9-1.2,3.9,0.6c0,1.5-8.2,5.4-11.5,5.5
	c-2,0-3.1,0.6-3.3,1.7c-0.3,1.4,0.2,1.6,3.1,1.1c2.7-0.4,3.7-0.1,4.9,1.6c0.8,1.2,3.6,2.7,6.2,3.5c4.7,1.4,4.8,1.4,3-0.5
	c-2.2-2.5-1-3.8,1.5-1.5c1.6,1.5,1.9,1.5,3.1,0.1c1-1.2,1-2.1,0.1-4.1c-1.5-3.3-0.4-5,1.9-2.9c1.9,1.8,6.1,1.2,8-1
	c0.8-1,0.5-1.7-1.2-2.9c-1.2-0.9-2.8-1.6-3.5-1.6c-1.6,0-1.7-2.2-0.2-3.7c0.8-0.8,0.2-1.5-2.2-2.7c-1.8-0.9-3.7-1.6-4.4-1.6
	c-0.6,0-2.2-1.1-3.5-2.5c-2.9-3.1-5-3.2-5.1-0.3c0,2.2-0.1,2.2-0.8,0.3c-1.2-3-10.4-3.1-15.6-0.2c-4.5,2.6-5.5,4.6-2.6,5.4
	c3,0.8,2.6,3-0.9,4.8c-3.3,1.7-4.6,1.6-4.2-0.3c0.2-0.7-0.4-1.5-1.3-1.8c-1.8-0.7-2-4.8-0.2-6.1c0.6-0.6,2.5-1.5,4.1-2
	c4.4-1.4,4.3-3-0.1-2.5c-2.3,0.2-4.6,1.3-5.8,2.6c-1.1,1.2-3.2,3-4.7,3.9c-1.8,1.1-2.5,2.2-2.1,3.6c0.3,1.3-0.2,2.3-1.7,3.1
	c-2.8,1.5-3.9,0.4-1.4-1.4c1.8-1.4,1.8-1.5,0.1-2.2c-1.3-0.4-2.7,0.2-4.6,2c-1.7,1.7-3.8,2.6-5.9,2.6c-3.5,0-8.2-1.9-8.2-3.3
	c0-0.8,1.9-0.6,7,0.8c0.8,0.2,2.4-0.2,3.4-1c1.6-1.2,1.7-1.7,0.6-3c-1.1-1.3-0.9-1.9,0.9-3.8c1.1-1.3,2.1-2.6,2.1-3
	c0-0.9-5,0.2-6.5,1.4c-1.5,1.1-9.3-0.1-10.6-1.7C146.1,18.2,136.2,18.8,131.5,21.3z M196,23c0,0.5-0.5,1-1.1,1c-0.5,0-0.7-0.5-0.4-1
	c0.3-0.6,0.8-1,1.1-1C195.8,22,196,22.4,196,23z M145,27c0,0.5-0.7,1-1.6,1c-0.8,0-1.2-0.5-0.9-1c0.3-0.6,1-1,1.6-1
	C144.6,26,145,26.4,145,27z M122.7,37.6c0.2,0.6-1.7,1.5-4.2,2.1c-3.6,0.8-4.5,0.8-4.5-0.3C114,36.5,121.8,34.9,122.7,37.6z M125,48
	c0,0.9-6.1,3-8.7,3c-2,0-1.5-1.4,1-2.6C120.1,47,125,46.7,125,48z M72.7,60.2c-0.3,0.8-0.6,0.5-0.6-0.6c-0.1-1.1,0.2-1.7,0.5-1.3
	C72.9,58.6,73,59.5,72.7,60.2z M215.4,70.1c-0.8,1.3-2.4,0.1-2.4-1.8c0-1.3,0.3-1.3,1.5-0.3C215.3,68.7,215.7,69.6,215.4,70.1z
	 M136,70.9c0,2.3-1.6,3.6-2.5,2.1c-0.9-1.4,0.1-4,1.5-4C135.5,69,136,69.9,136,70.9z M135.4,78.1c-0.8,1.4-3.4,1-3.4-0.5
	c0-0.9,0.7-1.2,2-0.9C135.1,77,135.7,77.6,135.4,78.1z M75,81c0,0.5-0.4,1-1,1c-0.5,0-1-0.5-1-1c0-0.6,0.5-1,1-1
	C74.6,80,75,80.4,75,81z M153,83.5c2.2,2.6,0.4,4.8-3.3,4.1c-4.3-0.9-4.8-0.9-7.6,0c-4.4,1.3-1.8-2,3-3.7
	C150.8,81.7,151.5,81.7,153,83.5z M148.9,92.8c-1.4,1.5-3.3,3.9-4.2,5.4c-1.9,3-3.7,3.7-3.7,1.4c0-1.8,5.7-8.9,7.8-9.7
	C151.5,88.9,151.5,89.8,148.9,92.8z M161.5,91c0.3,0.6-0.4,1.5-1.7,2s-3.1,1.5-4,2.2c-2.2,1.6-2.7,0.9-2.1-2.5
	c0.5-2.3,1-2.7,3.9-2.7C159.4,90,161.2,90.5,161.5,91z M168,96c0,0.5-1.3,1-3,1c-1.6,0-3-0.5-3-1c0-0.6,1.4-1,3-1
	C166.7,95,168,95.4,168,96z M160,98.9c0,0.9-5.3,3.1-7.6,3.1c-2.8,0-1.3-1.8,2.4-2.8C159.8,97.9,160,97.9,160,98.9z M161,189
	c0,0.5-0.4,1-1,1c-0.5,0-1-0.5-1-1c0-0.6,0.5-1,1-1C160.6,188,161,188.4,161,189z M168,259.4c0,0.3-0.4,0.8-1,1.1
	c-0.5,0.3-1,0.1-1-0.4c0-0.6,0.5-1.1,1-1.1C167.6,259,168,259.2,168,259.4z M169.1,261.3c-1,0.9-1.1,0.8-0.5-0.6
	c0.3-1,0.9-1.5,1.2-1.2C170.1,259.8,169.8,260.6,169.1,261.3z"/>
<path class="st0" d="M170.8,21.3c-3.2,1.2-3.4,1.9-1.3,3.7c1.2,1,2.1,0.8,4.6-0.7C180.3,20.8,177.8,18.5,170.8,21.3z"/>
<path class="st0" d="M443,28c0,0.5,0.5,1,1.1,1c0.5,0,0.7-0.5,0.4-1c-0.3-0.6-0.8-1-1.1-1C443.2,27,443,27.4,443,28z"/>
<path class="st0" d="M296,37.9c0,0.5,0.4,2.1,1,3.5c0.8,2.2,1.6,2.6,4.8,2.6c4,0,10-1.6,11.7-3.1c0.6-0.6,0.4-1.5-0.6-2.4
	c-1.1-1.1-2.6-1.3-6.6-0.6c-2.9,0.4-5.8,0.4-6.5,0C298,36.7,296,36.8,296,37.9z"/>
<path class="st0" d="M325,48.1c0,0.5,0.5,0.7,1,0.4c0.6-0.3,1-0.8,1-1.1c0-0.2-0.4-0.4-1-0.4C325.5,47,325,47.5,325,48.1z"/>
<path class="st0" d="M330,55.7c-2.6,1-5,3.6-5,5.4c0,1.1,1.4,3.1,3,4.6c3,2.6,3,2.7,1.1,4.7c-1,1.2-2.1,3.3-2.3,4.8l-0.5,2.8
	l5.6-0.6c4-0.5,6.1-1.3,7.2-2.7c1.6-2,1.5-2.3-2.3-6.9c-2.6-2.9-3.8-5.3-3.4-6.3c0.3-0.9-0.1-1.8-0.9-2.2c-1-0.3-1.3-1.2-1-2.4
	c0.4-1.1,0.5-1.9,0.3-1.8C331.6,55.1,330.8,55.4,330,55.7z"/>
<path class="st0" d="M318.8,66.6c-1.8,0.9-2.5,2-2.2,2.9c0.4,0.9,0.1,2.2-0.6,3c-1.7,2,0.7,2.9,4.2,1.6c2.6-1,6.2-6.6,5.2-8.2
	C324.6,64.6,321.9,64.9,318.8,66.6z"/>
<path class="st0" d="M644,91.9c0,0.6,0.5,1.3,1,1.6c0.6,0.4,0.8,2.1,0.4,3.9c-0.4,2.5-0.2,3.5,1,3.9c0.9,0.4,1.6,1.5,1.6,2.6
	c0,1.1,0.5,2.3,1,2.6c1.7,1,1.1,5.3-0.8,6.7c-1,0.7-2.1,2.1-2.5,3c-0.4,1.2-1.7,1.8-3.5,1.8s-3.8,1-5.7,3c-2.8,3-2.9,3.1-1.3,5.8
	c2.3,3.7,4.8,4.1,4.8,0.8c0-1.4-0.4-2.6-1-2.6c-0.5,0-1-0.7-1-1.5c0-0.8,0.5-1.5,1-1.5c0.6,0,1,0.7,1,1.5c0,1.7,2.5,2,3.5,0.5
	c0.3-0.6,1.7-1,3.1-1c1.3,0,2.4-0.4,2.4-0.8c0-0.5,1.8-1.4,4-2.1c3.9-1.2,5-2.4,3-3.6c-0.5-0.3-1-2.6-1-5c0-3.7-0.5-4.7-3.5-7.4
	c-3.9-3.4-4.6-5.6-1.6-4.8c2.4,0.6,6.1-1.8,6.1-3.9c0-1.1-0.6-1.3-2-0.9c-1.3,0.4-3.4-0.1-5.6-1.4C644.4,90.7,644,90.6,644,91.9z"/>
<path class="st0" d="M135.4,153c-2.5,1-4.1,3-2.4,3c0.6,0,2-0.5,3.1-1c2.2-1.2,9.4,1.4,11.8,4.3c1.4,1.7,8.1,2.4,8.1,0.9
	c0-0.5-1.7-1.7-3.7-2.8c-2-1-5-2.7-6.7-3.6C142.2,151.9,138.7,151.7,135.4,153z"/>
<path class="st0" d="M159.3,162.7c0.5,3.6,1.7,4.4,5.5,3.7c5.3-1,5.8-1.5,3.1-3.5C164.7,160.4,158.9,160.3,159.3,162.7z"/>
<path class="st0" d="M156,166c0,0.5,0.5,1,1,1c0.6,0,1-0.5,1-1c0-0.6-0.4-1-1-1C156.5,165,156,165.4,156,166z"/>
<path class="st0" d="M622.7,165.7c-0.9,1.6-0.6,9.2,0.3,9.8c0.6,0.3,1,1.5,1,2.5c0,2.2,2.2,3.9,2.8,2.2c0.5-1.7,3.2-1.5,3.8,0.3
	c0.4,0.8,1.2,1.5,2,1.5c0.8,0,1.4,1,1.4,2.5c0,2.5-0.1,2.5-2.5,0.9c-3.3-2.2-3.9-1.5-2,2.4c1.5,2.8,1.8,3,4.1,2
	c1.3-0.6,2.7-0.8,3-0.5c1,1-1.6,3.7-3.6,3.7c-1,0-2.4,0.8-3.1,1.7c-1.3,1.5-1.2,1.6,0.9,1.1c1.8-0.5,2.5-0.1,3.2,1.6
	c1.3,3.5,3.9,4,5,1c1.3-3.4,1.3-5-0.4-8.7c-0.8-1.8-1.6-4.3-1.8-5.7c-0.2-1.4-0.9-2.5-1.8-2.5c-0.8,0-1.5-0.9-1.5-2
	c0-1.4-0.8-2.1-2.8-2.3c-3.3-0.4-5.4-3.7-3.6-5.8c0.9-1.1,0.9-2.1,0.1-3.9C626.1,165.1,623.6,164.2,622.7,165.7z"/>
<path class="st0" d="M621.3,186.7c-0.3,1-1.3,2.6-2.1,3.6c-0.8,0.9-1.3,1.9-1.1,2.2c0.3,0.2,1.7-1.1,3.2-3c1.6-2,2.3-3.6,1.7-4
	C622.4,185.2,621.7,185.7,621.3,186.7z"/>
<path class="st0" d="M527.2,194.6c0.3,5.1,2.1,6.5,4.1,3.3c1.1-1.8-1-7-3.1-7.7C527.2,189.9,527,191,527.2,194.6z"/>
<path class="st0" d="M610.5,203.7c-4.3,4.4-8,7.3-9.5,7.5c-3.1,0.4-3.8,3.9-1.6,7.3c0.9,1.3,1.6,3.1,1.6,4c0,1.9,4,3.6,6.8,2.8
	c1.1-0.2,2.3,0,2.6,0.6c1.3,2.1,4.6,1.2,5.7-1.7c0.6-1.5,1.5-3.5,2-4.4c0.5-1,0.9-2.4,0.9-3.2c0-0.8,0.8-1.9,1.7-2.5
	c1.3-0.7,1.4-1.2,0.6-2.3c-1.7-2.1-1.9-5.3-0.5-8c1.2-2.3,1.1-2.7-1-4.9l-2.3-2.4L610.5,203.7z"/>
<path class="st0" d="M564.6,200.7c-0.3,0.3,1.6,3.1,4.2,6.2c5.3,6.3,6.5,8.1,9,13.1c2.7,5.6,8.2,12,10.3,12c1,0,1.9,0.6,1.9,1.4
	c0,2.6,3,3.7,15.2,5.8c8.3,1.3,15,1.8,20.6,1.5c7.5-0.4,9.9,0.2,7.2,1.8c-0.6,0.4-0.8,1.1-0.5,1.6c0.6,0.9,8.5-3.1,8.5-4.4
	c0-0.8-2.7-1-16.9-0.9c-9.1,0-11-0.3-15-2.4c-3.1-1.7-5.4-2.3-7.3-1.9c-4.1,1-10.7-2.3-10.8-5.3c0-1.3,0.4-3.1,0.9-4.1
	c1.2-2.2-0.2-4.6-2.3-3.8c-1.8,0.7-4.7-2.8-4-4.8c0.3-0.6-2.1-3.2-5.3-5.6c-3.2-2.4-6.7-5.3-7.8-6.4
	C570.2,202.2,565.5,199.9,564.6,200.7z"/>
<path class="st0" d="M643,215.2c0,4.8,1.6,4.2,2.6-1c0.5-2.5,0.3-3.2-1-3.2C643.4,211,643,212,643,215.2z"/>
<path class="st0" d="M625.6,214c-1.5,1.6-3.2,8.6-2.8,11c0.2,0.8,0.4,2.5,0.5,3.8c0.3,3.5,2.2,3.1,2.5-0.6c0.4-4,1.6-4.1,3.2-0.2
	c0.7,1.6,1.9,3,2.6,3c1.8,0,1.8-1.2-0.3-5.4c-1.6-3.4-1.6-3.7,0.3-5.7l1.9-2.2l-3.8,0.7c-3.4,0.6-3.8,0.5-3.5-1.1
	c0.2-1.4,1.5-1.9,5.2-2.3c6.6-0.7,7-2.5,0.5-2.5C628.7,212.5,626.4,213,625.6,214z"/>
<path class="st0" d="M652.8,217.7c-2.5,0.6-2.2,1.7,0.7,3.3c1.7,0.9,2.3,1.9,2,3.1c-0.6,1.7,0.9,3.3,3,3.4c0.6,0,3,0.7,5.3,1.5
	c5.3,1.7,7.3,5.2,4.6,8.1c-1.8,2-1.4,2.2,2.2,2c1.1-0.1,2.7,0.5,3.4,1.3c1.9,2.4,5.7,1.9,7.6-0.9c0.9-1.4,2.1-2.5,2.6-2.5
	c0.6,0,2.7,1.7,4.7,3.9c3.1,3.4,9.1,6.3,9.1,4.5c0-0.4-1.6-2.4-3.6-4.6c-2.1-2.4-3.3-4.6-3-5.5c1-2.5-6.3-8.7-13.4-11.3
	c-3.6-1.3-7-2.7-7.7-3.2c-1.3-1-4.2,0.2-6.3,2.7c-1.5,1.8-4,0.3-4-2.4C660,217.7,657.3,216.5,652.8,217.7z"/>
<path class="st0" d="M643.6,224.9c-0.4,0.5-0.3,1.1,0.1,1.3c1.5,0.8,7.8,0.1,7.8-0.8C651.5,224.1,644.3,223.7,643.6,224.9z"/>
<path class="st0" d="M653,248c0,1.3-0.7,2-1.9,2c-1.1,0-2.8,1.5-4.1,3.5c-2.4,3.9-3.5,4.2-6.1,1.9c-1.7-1.5-2-1.5-4.4,0
	c-1.4,0.9-3.1,2.8-3.7,4.2c-0.6,1.3-2.2,2.7-3.5,3c-1.3,0.4-2.3,1.2-2.3,1.8c0,2.3-5.5,6.3-10.5,7.6c-7.8,2.1-12.3,5.5-13,9.9
	c-0.3,2-0.9,4.3-1.4,5.1c-0.4,0.8-0.4,2.8,0,4.5c1.5,6.6,1,13.1-1.3,16c-2.1,2.7-2.1,2.8-0.3,4.1c2.4,1.8,4.3,1.7,7.5-0.1
	c1.4-0.8,4.5-1.4,6.9-1.5c3.1,0,5.1-0.7,7.3-2.5c1.6-1.4,3.9-2.5,5-2.5s3.8-0.5,5.8-1.1c2.1-0.7,5-0.9,6.4-0.5
	c3.8,0.9,6.8,4.3,6.1,6.7c-0.7,2,0.9,2.7,2,0.9c0.3-0.5,1.5-1.5,2.7-2.1c1.8-1,1.9-0.9,1.3,1.9c-0.4,1.9-0.2,3.3,0.5,3.7
	c0.6,0.4,0.9,1.7,0.6,3c-0.8,3,1.6,4.9,6.2,4.9c2,0.1,4.3,0.5,5,0.9c0.8,0.6,2,0.3,3.1-0.7c0.9-0.9,3.2-1.9,4.9-2.2
	c2.1-0.4,3.9-1.7,5.1-3.8c1.1-1.7,4.5-5.6,7.6-8.6c9.2-9,13.3-19.6,9.6-24.9c-1-1.4-2.5-4.6-3.5-7c-0.9-2.4-2.8-5.2-4.1-6.2
	c-1.8-1.5-2.5-3.3-3-8c-0.5-3.8-1.2-6.2-2.2-6.6c-0.8-0.3-1.2-1.2-0.9-1.9c0.7-1.9-1.5-6.5-2.8-6.1c-1,0.3-1.3,1.2-3.6,10.2
	c-0.5,2.2-1.6,4.9-2.4,6c-1.3,1.8-1.5,1.7-5.7-1.5c-2.4-1.8-4.8-3.7-5.3-4.1c-0.4-0.4,0.2-2.1,1.4-3.7c2.3-3.1,1.9-5.8-0.7-4.7
	c-0.9,0.3-3.1-0.4-4.9-1.4C653,246.1,653,246.1,653,248z"/>
<path class="st0" d="M449.5,253.8c-1.1,2.1-3.5,4.4-5.4,5.4c-4.4,2.2-5.4,4-4.6,8.6c0.4,2.6,0.1,4.3-0.9,5.7
	c-2.2,2.9-2,9.8,0.3,11.9c1.4,1.3,2.4,1.4,4.4,0.7c2.2-0.9,3.1-2.6,6.2-12.8c2-6.5,4.1-12.6,4.7-13.7c1.2-2.3,0-9.6-1.5-9.6
	C452,250,450.6,251.7,449.5,253.8z"/>
<path class="st0" d="M657.9,329.4c-1.5,1.6-1.1,6.6,0.5,6.6c1.8,0,6.4-4,6.8-5.9C665.6,328.5,659.5,327.9,657.9,329.4z"/>
<path class="st0" d="M210.5,358c0.3,0.5,1.7,1,3.1,1c1.3,0,2.4-0.5,2.4-1c0-0.6-1.4-1-3.1-1C211.2,357,210.1,357.4,210.5,358z"/>
</svg>
